<svg width="20" height="20" viewBox="0 0 20 20" fill="none" xmlns="http://www.w3.org/2000/svg">
<path fill-rule="evenodd" clip-rule="evenodd" d="M0.301308 6.77694L6.88457 0.296539C7.28623 -0.0988463 7.93764 -0.0988463 8.33931 0.296539C8.74105 0.692005 8.74105 1.33308 8.33931 1.72855L3.51205 6.48038H14.9714C15.5394 6.48038 16 6.93376 16 7.49294C16 8.05204 15.5394 8.5055 14.9714 8.5055H3.51205L8.33914 13.2573C8.74088 13.6528 8.74088 14.2939 8.33914 14.6893C8.13835 14.8869 7.87502 14.9859 7.61177 14.9859C7.34852 14.9859 7.08528 14.8869 6.8844 14.6893L0.301308 8.20894C-0.100435 7.81348 -0.100435 7.1724 0.301308 6.77694Z" fill="black"/>
</svg>
